<svg width="283" height="42" viewBox="0 0 283 42" fill="none" xmlns="http://www.w3.org/2000/svg">
<path d="M43.6328 36.1172C42.3828 36.0391 40.8984 36 39.1797 36H38.5547V9.92578C39.362 9.99089 39.9349 10.0234 40.2734 10.0234H41.0742C42.1029 10.0234 42.9557 9.97135 43.6328 9.86719V20.2773H52.8125V9.92578C53.8932 9.99089 54.9414 10.0234 55.957 10.0234C56.9857 10.0234 57.6302 9.97135 57.8906 9.86719V36.1172C57.2656 36.0391 56.0286 36 54.1797 36H52.8125V24.9648H43.6328V36.1172ZM80.9375 33.6953C78.7891 35.5573 76.1914 36.4883 73.1445 36.4883C70.1497 36.4883 67.6758 35.5964 65.7227 33.8125C63.8086 32.0807 62.8516 29.9323 62.8516 27.3672C62.8516 25.0495 63.8542 23.1224 65.8594 21.5859C66.4583 21.1172 67.1029 20.7266 67.793 20.4141C67.0508 19.1641 66.6797 17.9401 66.6797 16.7422C66.6797 15.5443 66.875 14.5221 67.2656 13.6758C67.6562 12.8294 68.1966 12.1003 68.8867 11.4883C70.3581 10.1862 72.2461 9.53516 74.5508 9.53516C76.1914 9.53516 77.6953 9.92578 79.0625 10.707C78.9974 11.8138 78.9648 12.6667 78.9648 13.2656C78.9648 14.0859 78.9714 14.6003 78.9844 14.8086C79.0104 15.0169 79.0169 15.1667 79.0039 15.2578C79.0039 15.3359 78.9974 15.401 78.9844 15.4531C78.9323 15.5312 78.9193 15.6224 78.9453 15.7266L78.8477 15.8633C78.3268 15.082 77.3177 14.5221 75.8203 14.1836C75.3646 14.0794 74.7786 14.0273 74.0625 14.0273C73.3464 14.0273 72.7539 14.2422 72.2852 14.6719C71.8294 15.1016 71.6016 15.6419 71.6016 16.293C71.6016 17.4128 72.3958 18.8385 73.9844 20.5703C74.4792 21.1172 75.0781 21.7357 75.7812 22.4258L80.3711 26.625C80.7878 25.4922 80.9961 24.3008 80.9961 23.0508C80.9961 22.2826 80.8008 21.6445 80.4102 21.1367C80.319 21.0195 80.2474 20.9414 80.1953 20.9023V20.668L83.0273 21.8008C83.5742 22.0221 84.0169 22.1914 84.3555 22.3086C84.694 22.4258 84.9479 22.5234 85.1172 22.6016C85.4167 22.7318 85.5664 22.875 85.5664 23.0312C85.5664 25.375 85.0391 27.6016 83.9844 29.7109C85.3125 30.8047 86.1654 31.4232 86.543 31.5664C86.9206 31.7096 87.207 31.7943 87.4023 31.8203C88.0273 31.8984 88.3919 31.8724 88.4961 31.7422L88.5938 31.8594L86.582 36.2539C86.3607 36.4102 85.9831 36.4883 85.4492 36.4883C84.6289 36.4883 83.125 35.5573 80.9375 33.6953ZM69.375 30.3945C70.4557 31.332 71.7513 31.8008 73.2617 31.8008C74.7852 31.8008 76.1523 31.3841 77.3633 30.5508L75.2539 28.6172C73.0013 26.5729 71.2109 24.7891 69.8828 23.2656C68.4635 24.2943 67.7539 25.5052 67.7539 26.8984C67.7539 28.2917 68.2943 29.457 69.375 30.3945ZM96.9141 36.1172C96.2891 36.0391 95.0846 36 93.3008 36H91.7383V9.94531C92.5716 9.9974 93.4896 10.0234 94.4922 10.0234C95.4948 10.0234 96.2044 9.97135 96.6211 9.86719L103.184 21.0195L109.492 9.86719C109.909 9.97135 110.703 10.0234 111.875 10.0234C113.047 10.0234 114.049 9.9974 114.883 9.94531V36H113.32C111.536 36 110.332 36.0391 109.707 36.1172V18.6172L103.32 30.043L96.9141 19.5352V36.1172ZM131.016 36.0781C130.625 36.026 129.961 36 129.023 36H126.758C126.315 36 125.951 36.013 125.664 36.0391L125.645 36C125.697 35.9089 125.723 35.8047 125.723 35.6875C125.723 35.5703 125.71 35.4466 125.684 35.3164C125.671 35.1862 125.618 34.9518 125.527 34.6133C125.449 34.2747 125.326 33.7865 125.156 33.1484L118.516 9.94531C119.349 9.9974 120.358 10.0234 121.543 10.0234C122.728 10.0234 123.496 9.97135 123.848 9.86719L128.457 27.543L132.949 9.94531C133.145 9.95833 133.32 9.97135 133.477 9.98438H133.906C134.336 10.0104 134.876 10.0234 135.527 10.0234C136.178 10.0234 136.849 9.97135 137.539 9.86719L142.109 27.543L146.035 9.94531C146.816 9.9974 147.839 10.0234 149.102 10.0234C150.365 10.0234 151.133 9.97135 151.406 9.86719L145.781 30.4727C145.065 32.8424 144.688 34.2487 144.648 34.6914C144.609 35.1341 144.59 35.4401 144.59 35.6094C144.59 35.7786 144.616 35.9154 144.668 36.0195L144.629 36.0781C144.212 36.026 143.555 36 142.656 36C141.875 36 141.165 36 140.527 36C139.889 36 139.427 36.013 139.141 36.0391L139.121 36C139.173 35.9089 139.199 35.8047 139.199 35.6875C139.199 35.5703 139.193 35.4531 139.18 35.3359C139.167 35.2188 139.128 34.9974 139.062 34.6719C139.01 34.3333 138.919 33.8385 138.789 33.1875L138.262 30.5312L135.059 18.3633L132.012 30.4727C131.387 32.9596 131.061 34.3919 131.035 34.7695C130.983 35.4857 130.99 35.9023 131.055 36.0195L131.016 36.0781ZM153.652 25.9609C153.652 24.4375 153.913 23.0247 154.434 21.7227C154.954 20.4206 155.69 19.2812 156.641 18.3047C158.672 16.2344 161.328 15.1992 164.609 15.1992C167.383 15.1992 169.609 16.1172 171.289 17.9531C172.943 19.724 173.77 21.9505 173.77 24.6328C173.77 25.6615 173.691 26.3646 173.535 26.7422C172.233 27.1068 169.583 27.2891 165.586 27.2891H158.711C159.049 28.6823 159.837 29.7695 161.074 30.5508C162.311 31.319 163.919 31.7031 165.898 31.7031C167.969 31.7031 169.746 31.332 171.23 30.5898C171.621 30.3945 171.914 30.2122 172.109 30.043C172.083 30.5898 172.051 31.1497 172.012 31.7227L171.797 34.7695C170.807 35.4466 169.206 35.9154 166.992 36.1758C166.341 36.2539 165.716 36.293 165.117 36.293C161.81 36.293 159.076 35.3294 156.914 33.4023C154.74 31.4622 153.652 28.9818 153.652 25.9609ZM168.574 23.5C168.04 20.7005 166.517 19.3008 164.004 19.3008C162.025 19.3008 160.521 20.1536 159.492 21.8594C159.18 22.3802 158.939 22.9531 158.77 23.5781C159.082 23.5911 159.466 23.6042 159.922 23.6172H161.367C161.849 23.6302 162.311 23.6367 162.754 23.6367H163.867C164.531 23.6367 165.182 23.6302 165.82 23.6172L167.422 23.5586C167.852 23.5456 168.236 23.526 168.574 23.5ZM191.504 34.7891C189.655 35.7917 187.982 36.293 186.484 36.293C184.987 36.293 183.704 36.1562 182.637 35.8828C181.569 35.5964 180.664 35.1797 179.922 34.6328C178.411 33.526 177.656 31.9245 177.656 29.8281C177.656 27.9531 178.581 26.3906 180.43 25.1406C182.435 23.7865 185.156 23.1094 188.594 23.1094L189.375 23.1289C189.531 23.1419 189.707 23.1549 189.902 23.168C190.098 23.168 190.273 23.181 190.43 23.207C190.326 21.1237 189.427 19.9062 187.734 19.5547C187.174 19.4375 186.576 19.3789 185.938 19.3789C185.312 19.3789 184.694 19.4375 184.082 19.5547C183.483 19.6589 182.897 19.8021 182.324 19.9844C181.061 20.388 180.156 20.8503 179.609 21.3711L179.551 21.332L178.965 17.0156C181.27 15.8047 183.789 15.1992 186.523 15.1992C190.768 15.1992 193.483 16.7292 194.668 19.7891C195.046 20.7656 195.234 21.8659 195.234 23.0898V30.1602C195.234 31.6706 195.768 32.6992 196.836 33.2461L193.301 36.4883C192.559 36.0977 191.96 35.5312 191.504 34.7891ZM190.449 26.7227C190.098 26.6576 189.733 26.625 189.355 26.625H188.574C185.697 26.625 183.867 27.263 183.086 28.5391C182.852 28.9167 182.734 29.3138 182.734 29.7305C182.734 30.1471 182.806 30.5182 182.949 30.8438C183.105 31.1562 183.359 31.4167 183.711 31.625C184.388 32.0156 185.391 32.2109 186.719 32.2109C188.06 32.2109 189.31 31.8919 190.469 31.2539C190.456 31.1107 190.449 30.9609 190.449 30.8047V26.7227ZM210.41 31.7031C212.09 31.7031 213.242 31.2669 213.867 30.3945H214.023L214.082 34.9258C213.444 35.5638 212.259 35.987 210.527 36.1953C210.059 36.2604 209.473 36.293 208.77 36.293C208.079 36.293 207.324 36.1628 206.504 35.9023C205.697 35.6419 205.007 35.2188 204.434 34.6328C203.249 33.4219 202.656 31.5273 202.656 28.9492V20.082H199.707C199.694 19.7044 199.688 19.3203 199.688 18.9297V15.9219C199.688 15.7005 199.694 15.5898 199.707 15.5898H202.656V10.0234H207.441V15.5898H212.812V20.082H207.441V28.0508C207.441 30.0951 208.008 31.2604 209.141 31.5469C209.505 31.651 209.928 31.7031 210.41 31.7031ZM223.359 33.8125C223.359 34.9323 223.385 35.6615 223.438 36H218.574V8.07031H223.359V17.1133C225.039 15.8372 226.771 15.1992 228.555 15.1992C230.742 15.1992 232.5 15.9219 233.828 17.3672C235.13 18.8125 235.781 20.7266 235.781 23.1094V30.8828C235.781 33.0833 235.814 34.4049 235.879 34.8477C235.944 35.2904 236.029 35.5768 236.133 35.707C236.25 35.8372 236.348 35.9544 236.426 36.0586L236.387 36.1367C235.332 36.0456 234.564 36 234.082 36H232.695C232.266 36 231.699 36.0195 230.996 36.0586V24.75C230.996 22.9531 230.599 21.625 229.805 20.7656C229.206 20.1146 228.392 19.7891 227.363 19.7891C225.84 19.7891 224.505 20.668 223.359 22.4258V33.8125ZM240.41 25.9609C240.41 24.4375 240.671 23.0247 241.191 21.7227C241.712 20.4206 242.448 19.2812 243.398 18.3047C245.43 16.2344 248.086 15.1992 251.367 15.1992C254.141 15.1992 256.367 16.1172 258.047 17.9531C259.701 19.724 260.527 21.9505 260.527 24.6328C260.527 25.6615 260.449 26.3646 260.293 26.7422C258.991 27.1068 256.341 27.2891 252.344 27.2891H245.469C245.807 28.6823 246.595 29.7695 247.832 30.5508C249.069 31.319 250.677 31.7031 252.656 31.7031C254.727 31.7031 256.504 31.332 257.988 30.5898C258.379 30.3945 258.672 30.2122 258.867 30.043C258.841 30.5898 258.809 31.1497 258.77 31.7227L258.555 34.7695C257.565 35.4466 255.964 35.9154 253.75 36.1758C253.099 36.2539 252.474 36.293 251.875 36.293C248.568 36.293 245.833 35.3294 243.672 33.4023C241.497 31.4622 240.41 28.9818 240.41 25.9609ZM255.332 23.5C254.798 20.7005 253.275 19.3008 250.762 19.3008C248.783 19.3008 247.279 20.1536 246.25 21.8594C245.938 22.3802 245.697 22.9531 245.527 23.5781C245.84 23.5911 246.224 23.6042 246.68 23.6172H248.125C248.607 23.6302 249.069 23.6367 249.512 23.6367H250.625C251.289 23.6367 251.94 23.6302 252.578 23.6172L254.18 23.5586C254.609 23.5456 254.993 23.526 255.332 23.5ZM269.395 33.8125C269.395 34.9323 269.421 35.6615 269.473 36H264.609V15.5898H269.395V17.0938C270.501 15.8307 271.66 15.1992 272.871 15.1992C274.095 15.1992 275.059 15.349 275.762 15.6484L275.41 20.9023L275.332 20.9609C274.876 20.1536 273.932 19.75 272.5 19.75C271.953 19.75 271.393 19.9388 270.82 20.3164C270.26 20.681 269.785 21.1693 269.395 21.7812V33.8125Z" fill="white"/>
<path d="M17.4993 36.6608C10.8059 36.6608 5.33914 31.1952 5.33914 24.5C5.33914 17.8048 10.8046 12.3809 17.4993 12.3809C24.1941 12.3809 29.6179 17.8478 29.6179 24.5C29.6179 31.2369 24.1941 36.6608 17.4993 36.6608ZM34.9987 24.457L31.0165 20.8554L32.626 15.7285L27.3715 14.5849L26.2282 9.33029L21.1013 10.9833L17.4577 7L13.8557 10.9833L8.72884 9.37328L7.58418 14.6265L2.33099 15.7715L3.98352 20.8984L0 24.5417L3.98352 28.1446L2.37266 33.2715L7.62715 34.4151L8.77051 39.6697L13.8974 38.0167L17.5423 42L21.143 38.0167L26.2699 39.6267L27.4145 34.3722L32.669 33.1868L31.0152 28.0586L35 24.457H34.9987Z" fill="#F05514"/>
<path d="M9.83051 16.8735C10.8376 15.8659 12.0333 15.0666 13.3492 14.5213C14.6651 13.976 16.0756 13.6953 17.5 13.6953C18.9244 13.6953 20.3348 13.976 21.6508 14.5213C22.9667 15.0666 24.1624 15.8659 25.1695 16.8735C26.1768 17.8803 26.9759 19.0758 27.5211 20.3916C28.0663 21.7075 28.3469 23.1179 28.3469 24.5423C28.3469 25.9667 28.0663 27.3772 27.5211 28.693C26.9759 30.0089 26.1768 31.2044 25.1695 32.2112C24.1624 33.219 22.9666 34.0184 21.6506 34.5639C20.3345 35.1093 18.9239 35.39 17.4993 35.39C16.0748 35.39 14.6642 35.1093 13.3481 34.5639C12.0321 34.0184 10.8363 33.219 9.82921 32.2112C5.59306 27.9739 5.59306 21.0677 9.82921 16.8735" fill="#F05514"/>
</svg>
